<svg width="512" height="512" viewBox="0 0 512 512" fill="none" xmlns="http://www.w3.org/2000/svg">
<rect width="512" height="512" rx="80" fill="#E9EBF7"/>

    <defs>
        <filter id="logoShadow" x="-20%" y="-20%" width="140%" height="140%">
            <feDropShadow dx="0" dy="6" stdDeviation="5" flood-color="#000000" flood-opacity="0.4"/>
        </filter>
    </defs>
    
    
    <g transform="translate(56.32, 56.32) scale(8.320)" filter="url(#logoShadow)" opacity="0.95">

 <rect style="opacity:.2" width="40" height="40" x="4" y="5" ry="2"/>
 <rect style="fill:#4f4f4f" width="40" height="40" x="4" y="4" ry="2"/>
 <path style="fill:#ffffff;opacity:.1" d="m6 4c-1.108 0-2 0.892-2 2v1c0-1.108 0.892-2 2-2h36c1.108 0 2 0.892 2 2v-1c0-1.108-0.892-2-2-2z"/>
 <path style="opacity:0.2" d="m 9,11 v 28 h 6 V 29 h 6 v -6 h -6 v -6 h 6 v -6 z m 16,0 v 6 h 4 v 22 h 6 V 17 h 4 v -6 z"/>
 <path style="fill:#ffffff" d="m 9,10 v 28 h 6 V 28 h 6 v -6 h -6 v -6 h 6 v -6 z m 16,0 v 6 h 4 v 22 h 6 V 16 h 4 v -6 z"/>

    </g>
</svg>