<svg width="512" height="512" viewBox="0 0 512 512" fill="none" xmlns="http://www.w3.org/2000/svg">
<rect width="512" height="512" rx="80" fill="#E9EBF7"/>

    <defs>
        <filter id="logoShadow" x="-20%" y="-20%" width="140%" height="140%">
            <feDropShadow dx="0" dy="6" stdDeviation="5" flood-color="#000000" flood-opacity="0.4"/>
        </filter>
    </defs>
    
    
    <g transform="translate(56.32, 56.32) scale(8.320)" filter="url(#logoShadow)" opacity="0.95">

 <rect fill="#a94912" width="40" height="40" x="4" y="4" rx="20" ry="20"/>
 <path fill="#fff" opacity=".2" d="m24 4c-11.08 0-20 8.92-20 20 0 0.168 0.008 0.333 0.0117 0.5 0.2647-10.846 9.0763-19.5 19.988-19.5s19.724 8.6539 19.988 19.5c0.004-0.16686 0.0117-0.33213 0.0117-0.5 0-11.08-8.92-20-20-20z"/>
 <path opacity=".2" d="m4.0117 24.5c-0.0041 0.167-0.0117 0.332-0.0117 0.5 0 11.08 8.92 20 20 20s20-8.92 20-20c0-0.168-0.008-0.333-0.012-0.5-0.264 10.846-9.076 19.5-19.988 19.5s-19.724-8.654-19.988-19.5z"/>
 <path opacity=".2" d="m24 10a9 9 0 0 0 -9 9 9 9 0 0 0 6.2207 8.5488l1.779 12.451h2l1.777-12.445a9 9 0 0 0 6.223 -8.555 9 9 0 0 0 -9 -9zm0 2a6 6 0 0 1 6 6 6 6 0 0 1 -6 6 6 6 0 0 1 -6 -6 6 6 0 0 1 6 -6z"/>
 <path fill="#eda458" d="m24 9a9 9 0 0 0 -9 9 9 9 0 0 0 9 9 9 9 0 0 0 9 -9 9 9 0 0 0 -9 -9zm0 2a6 6 0 0 1 6 6 6 6 0 0 1 -6 6 6 6 0 0 1 -6 -6 6 6 0 0 1 6 -6z"/>
 <path fill="#eda458" d="m21 25h6l-2 14h-2z"/>
 <rect opacity=".2" width="4" height="14" x="29" y="-31" transform="rotate(90)"/>
 <rect fill="#f56161" width="4" height="14" x="28" y="-31" transform="rotate(90)"/>

    </g>
</svg>