<svg width="512" height="512" viewBox="0 0 512 512" fill="none" xmlns="http://www.w3.org/2000/svg">
<rect width="512" height="512" rx="80" fill="#E9EBF7"/>

    <defs>
        <filter id="logoShadow" x="-20%" y="-20%" width="140%" height="140%">
            <feDropShadow dx="0" dy="6" stdDeviation="5" flood-color="#000000" flood-opacity="0.4"/>
        </filter>
    </defs>
    
    
    <g transform="translate(56.32, 56.32) scale(8.320)" filter="url(#logoShadow)" opacity="0.95">

 <g transform="matrix(2,0,0,2,2,2)">
  <rect x="1" y="1.5" width="20" height="20" ry="3" style="opacity:.2"/>
  <rect x="1" y="1" width="20" height="20" ry="3" style="fill:#f14729"/>
  <path d="m5 5.5v12h12v-12zm2 2h8v2.5l-3 2.5 1 1.486328 2-1.496094v3.009766h-8v-2.5l3-2.5-1-1.4863281-2 1.4960941z" style="opacity:.2"/>
  <path d="m5 5v12h12v-12zm2 2h8v2.5l-3 2.5 1 1.486328 2-1.496094v3.009766h-8v-2.5l3-2.5-1-1.4863281-2 1.4960941z" style="fill:#ffffff"/>
  <path d="m4 1c-1.662 0-3 1.338-3 3v0.5c0-1.662 1.338-3 3-3h14c1.662 0 3 1.338 3 3v-0.5c0-1.662-1.338-3-3-3z" style="fill:#ffffff;opacity:.2"/>
 </g>

    </g>
</svg>