<svg width="512" height="512" viewBox="0 0 512 512" fill="none" xmlns="http://www.w3.org/2000/svg">
<rect width="512" height="512" rx="80" fill="#292930"/>

    <defs>
        <filter id="logoShadow" x="-20%" y="-20%" width="140%" height="140%">
            <feDropShadow dx="0" dy="6" stdDeviation="5" flood-color="#000000" flood-opacity="0.4"/>
        </filter>
    </defs>
    
    
    <g transform="translate(56.32, 56.32) scale(8.320)" filter="url(#logoShadow)" opacity="0.95">

 <circle cx="24" cy="25" r="20" style="opacity:.2"/>
 <circle cx="24" cy="24" r="20" style="fill:#9bce5d"/>
 <path d="M 24,4 A 20,20 0 0 0 4,24 20,20 0 0 0 4.0215,24.582 20,20 0 0 1 24,5 20,20 0 0 1 43.979,24.418 20,20 0 0 0 44,24 20,20 0 0 0 24,4 Z" style="fill:#ffffff;opacity:.2"/>
 <path d="m24 14a16 11 0 0 0-16 11 16 11 0 0 0 16 11 16 11 0 0 0 16-11 16 11 0 0 0-16-11zm0 4a10 7 0 0 1 10 7 10 7 0 0 1-10 7 10 7 0 0 1-10-7 10 7 0 0 1 10-7zm0 4a4 3 0 0 0-4 3 4 3 0 0 0 4 3 4 3 0 0 0 4-3 4 3 0 0 0-4-3z" style="opacity:.2"/>
 <path d="m24 13a16 11 0 0 0-16 11 16 11 0 0 0 16 11 16 11 0 0 0 16-11 16 11 0 0 0-16-11zm0 4a10 7 0 0 1 10 7 10 7 0 0 1-10 7 10 7 0 0 1-10-7 10 7 0 0 1 10-7zm0 4a4 3 0 0 0-4 3 4 3 0 0 0 4 3 4 3 0 0 0 4-3 4 3 0 0 0-4-3z" style="fill:#ffffff"/>

    </g>
</svg>