<svg width="512" height="512" viewBox="0 0 512 512" fill="none" xmlns="http://www.w3.org/2000/svg">
<rect width="512" height="512" rx="80" fill="#292930"/>

    <defs>
        <filter id="logoShadow" x="-20%" y="-20%" width="140%" height="140%">
            <feDropShadow dx="0" dy="6" stdDeviation="5" flood-color="#000000" flood-opacity="0.4"/>
        </filter>
    </defs>
    
    
    <g transform="translate(56.32, 56.32) scale(8.320)" filter="url(#logoShadow)" opacity="0.95">

 <rect style="opacity:0.2" width="40" height="40" x="4" y="5" rx="2" ry="2"/>
 <rect style="fill:#f1723c" width="40" height="40" x="4" y="4" rx="2" ry="2"/>
 <path fill="#fff" opacity=".2" d="m4 7v-1c0-1.108 0.892-2 2-2h36c1.108 0 2 0.892 2 2v1c0-1.108-0.892-2-2-2h-36c-1.108 0-2 0.892-2 2z"/>
 <path style="opacity:0.2;fill:none;stroke:#000000;stroke-width:4;stroke-linecap:round;stroke-linejoin:round" d="m 14.014242,13.985515 h 14 c 0,0 6,0 6,5.5 0,5.5 -6,5.5 -6,5.5 h -14 v 11"/>
 <path style="fill:none;stroke:#ffffff;stroke-width:4;stroke-linecap:round;stroke-linejoin:round" d="m 14.014242,12.985858 h 14 c 0,0 6,0 6,5.5 0,5.5 -6,5.5 -6,5.5 h -14 v 11"/>

    </g>
</svg>