<svg width="512" height="512" viewBox="0 0 512 512" fill="none" xmlns="http://www.w3.org/2000/svg">
<rect width="512" height="512" rx="80" fill="#E9EBF7"/>

    <defs>
        <filter id="logoShadow" x="-20%" y="-20%" width="140%" height="140%">
            <feDropShadow dx="0" dy="6" stdDeviation="5" flood-color="#000000" flood-opacity="0.4"/>
        </filter>
    </defs>
    
    
    <g transform="translate(0.00, 0.00) scale(1.463)" filter="url(#logoShadow)" opacity="0.95">

<path d="M208.237 11.0257C207.046 12.0664 205.868 13.1226 204.704 14.1939L203.011 15.7224C191.819 26.4794 185.518 41.333 184.91 56.9403C184.568 74.3931 191.184 89.9641 202.501 102.725C204.618 104.985 206.781 107.188 208.971 109.373C211.501 112.012 211.405 113.527 211.418 117.167L211.432 120.143L211.439 123.428L211.454 126.873C211.465 129.35 211.473 131.827 211.48 134.304C211.491 138.221 211.51 142.139 211.528 146.056C211.579 157.197 211.623 168.338 211.662 179.478C211.683 185.629 211.709 191.779 211.739 197.929C211.759 201.822 211.773 205.715 211.78 209.607C211.788 212.033 211.8 214.458 211.815 216.883C211.82 218.006 211.823 219.129 211.824 220.251C211.826 221.788 211.833 223.324 211.846 224.86L211.855 227.462C212.113 230.695 212.83 233.359 214.615 236.043C219.431 239.641 225.415 240.028 231.183 239.986L233.227 239.993C234.642 239.994 236.056 239.99 237.471 239.98C239.62 239.968 241.769 239.98 243.918 239.995C245.302 239.993 246.685 239.99 248.069 239.986L249.988 240C255.298 239.937 260.019 239.09 264.172 235.523C266.73 232.227 266.594 228.862 266.773 224.81L266.866 222.785C267.222 214.426 267.278 206.065 267.341 197.701L267.387 192.524C267.427 188.035 267.464 183.547 267.499 179.059C267.537 174.458 267.576 169.856 267.617 165.255C267.696 156.267 267.771 147.278 267.843 138.289L270.094 139.712L273.068 141.576L274.546 142.512C285.039 149.064 296.714 150.712 308.636 147.748C323.996 142.929 335.833 133.772 343.601 119.183C349.469 107.532 351.972 93.9775 348.235 81.0655C343.266 68.6703 334.662 59.3715 323.138 53.2515C320.85 51.6049 319.83 49.4923 318.546 47.0149C310.965 33.2479 300.7 23.094 287.666 14.9506L286.376 14.1334C263.359 -0.375162 231.174 -7.26851 208.237 11.0257ZM269.311 26.3008L270.708 26.9659C278.033 30.5254 283.94 35.0238 289.868 40.6777L291.723 42.3772C300.122 50.4412 305.501 61.2935 306.086 73.1673C305.697 86.8526 297.68 98.2043 288.445 107.405C282.415 112.878 276.08 116.121 267.94 115.852C251.035 113.918 232.509 105.578 220.121 93.6453L218.728 92.3892C211.593 85.6184 207.392 77.4032 204.704 67.9182L204.256 66.4079C202.274 55.9286 205.014 45.6521 210.577 36.8943C215.956 29.0052 222.524 22.4463 231.868 20.2474L233.58 19.8312C245.882 17.6959 258.217 20.9677 269.311 26.3008ZM325.843 80.0251C326.442 81.3483 327.038 82.6724 327.632 83.9976L328.639 86.2321C331.074 92.1229 331.077 98.6053 329.101 104.665C324.954 114.978 318.436 122.297 308.523 126.992C304.032 128.778 299.799 129.42 295.007 129.209C295.871 126.538 296.603 126.099 298.77 124.48C304.207 120.409 308.24 115.643 311.893 109.867L313.043 108.056C318.651 99.0957 322.26 90.4506 324.374 80.0251H325.843ZM237.925 126.419C241.247 128.037 244.562 129.445 248.02 130.723C248.714 135.54 248.859 140.226 248.85 145.092L248.853 147.551C248.855 150.217 248.855 152.882 248.852 155.549L248.854 161.115C248.855 164.995 248.854 168.874 248.85 172.753C248.847 177.737 248.848 182.721 248.853 187.705C248.855 191.532 248.855 195.358 248.853 199.184C248.853 201.023 248.853 202.862 248.854 204.701C248.856 207.261 248.854 209.821 248.849 212.38L248.854 214.702L248.848 216.801L248.847 218.634C248.9 220.027 248.9 220.027 248.02 220.767C246.829 220.843 245.634 220.866 244.441 220.868L242.25 220.871L239.944 220.862L237.639 220.871L235.447 220.868L233.422 220.865C231.879 220.946 231.879 220.946 231.134 220.011C231.069 218.775 231.039 217.538 231.046 216.3L231.043 213.866L231.05 211.173V208.355C231.051 205.797 231.054 203.24 231.06 200.682C231.063 198.012 231.065 195.341 231.066 192.671C231.068 187.612 231.073 182.552 231.081 177.492C231.089 171.734 231.094 165.976 231.097 160.217C231.105 148.368 231.117 136.518 231.134 124.669C234.141 124.669 235.289 125.104 237.925 126.419Z" fill="black"/>
<path d="M241.7 43.1374C250.185 48.7016 254.301 57.6874 250.893 63.2076C247.485 68.7278 237.844 68.6921 229.359 63.1279C220.874 57.5637 216.758 48.578 220.166 43.0577C223.574 37.5375 233.215 37.5732 241.7 43.1374Z" fill="black"/>
<path d="M141.763 11.0257C142.954 12.0664 144.132 13.1226 145.296 14.1939L146.989 15.7224C158.181 26.4794 164.482 41.333 165.09 56.9403C165.432 74.3931 158.816 89.9641 147.499 102.725C145.382 104.985 143.219 107.188 141.029 109.373C138.499 112.012 138.595 113.527 138.582 117.167L138.568 120.143L138.561 123.428L138.546 126.873C138.535 129.35 138.527 131.827 138.52 134.304C138.509 138.221 138.49 142.139 138.472 146.056C138.421 157.197 138.377 168.338 138.338 179.478C138.317 185.629 138.291 191.779 138.261 197.929C138.241 201.822 138.227 205.715 138.22 209.607C138.212 212.033 138.2 214.458 138.185 216.883C138.18 218.006 138.177 219.128 138.176 220.251C138.174 221.787 138.167 223.324 138.154 224.86L138.145 227.462C137.887 230.695 137.17 233.359 135.385 236.043C130.569 239.641 124.585 240.028 118.817 239.986L116.773 239.993C115.358 239.994 113.944 239.99 112.529 239.98C110.38 239.968 108.231 239.98 106.082 239.995C104.698 239.993 103.315 239.99 101.931 239.986L100.012 240C94.702 239.937 89.9813 239.09 85.8281 235.523C83.2702 232.227 83.406 228.862 83.2269 224.81L83.1344 222.785C82.7783 214.426 82.7218 206.065 82.6594 197.701L82.6131 192.524C82.573 188.035 82.5355 183.547 82.5008 179.059C82.4631 174.458 82.4237 169.856 82.3826 165.255C82.3043 156.267 82.2292 147.278 82.1572 138.289L79.9062 139.712L76.9321 141.576L75.4542 142.512C64.9613 149.064 53.2857 150.712 41.3642 147.748C26.0038 142.929 14.1667 133.772 6.39912 119.183C0.530857 107.532 -1.97194 93.9775 1.76501 81.0655C6.73391 68.6703 15.3384 59.3715 26.8621 53.2515C29.1497 51.6049 30.1695 49.4923 31.4536 47.0149C39.0347 33.2479 49.2999 23.094 62.3345 14.9506L63.6237 14.1334C86.6408 -0.375161 118.826 -7.26851 141.763 11.0257ZM80.6888 26.3008L79.2917 26.9659C71.9668 30.5254 66.0604 35.0238 60.1319 40.6777L58.2767 42.3772C49.8777 50.4412 44.4991 61.2935 43.914 73.1673C44.3031 86.8526 52.3203 98.2043 61.5548 107.405C67.5845 112.878 73.9205 116.121 82.0603 115.852C98.9654 113.918 117.491 105.578 129.879 93.6453L131.272 92.3892C138.407 85.6184 142.608 77.4032 145.296 67.9182L145.744 66.4079C147.726 55.9286 144.986 45.6521 139.423 36.8943C134.044 29.0052 127.476 22.4463 118.132 20.2474L116.42 19.8312C104.118 17.6959 91.783 20.9677 80.6888 26.3008ZM24.1574 80.0251C23.5583 81.3482 22.9619 82.6724 22.3682 83.9976L21.3609 86.2321C18.9263 92.1229 18.9234 98.6053 20.8991 104.665C25.0464 114.978 31.5637 122.297 41.4765 126.992C45.9682 128.778 50.2015 129.42 54.9927 129.209C54.1286 126.538 53.3966 126.099 51.2301 124.48C45.7935 120.409 41.7599 115.643 38.1067 109.867L36.957 108.056C31.3486 99.0957 27.7401 90.4506 25.6257 80.0251H24.1574ZM112.075 126.419C108.753 128.037 105.438 129.445 101.98 130.723C101.286 135.54 101.141 140.226 101.15 145.092L101.147 147.551C101.145 150.217 101.145 152.882 101.148 155.548L101.146 161.115C101.145 164.995 101.146 168.874 101.15 172.753C101.153 177.737 101.152 182.721 101.147 187.705C101.145 191.532 101.145 195.358 101.147 199.184C101.147 201.023 101.147 202.862 101.146 204.701C101.144 207.261 101.146 209.821 101.151 212.38L101.146 214.702L101.152 216.801L101.153 218.634C101.1 220.027 101.1 220.027 101.98 220.767C103.171 220.843 104.366 220.866 105.559 220.868L107.75 220.871L110.056 220.862L112.361 220.871L114.553 220.868L116.578 220.865C118.121 220.946 118.121 220.946 118.866 220.011C118.931 218.775 118.961 217.538 118.954 216.3L118.957 213.866L118.95 211.173V208.355C118.949 205.797 118.946 203.24 118.94 200.682C118.937 198.012 118.935 195.341 118.934 192.671C118.932 187.612 118.927 182.552 118.919 177.492C118.911 171.734 118.906 165.976 118.903 160.217C118.895 148.368 118.883 136.518 118.866 124.669C115.859 124.669 114.711 125.103 112.075 126.419Z" fill="black"/>
<path d="M108.299 43.1374C99.8143 48.7016 95.6984 57.6874 99.1062 63.2076C102.514 68.7278 112.155 68.6921 120.64 63.1279C129.125 57.5637 133.241 48.578 129.833 43.0577C126.426 37.5375 116.784 37.5732 108.299 43.1374Z" fill="black"/>

    </g>
</svg>