<svg width="512" height="512" viewBox="0 0 512 512" fill="none" xmlns="http://www.w3.org/2000/svg">
<rect width="512" height="512" rx="80" fill="#E9EBF7"/>

    <defs>
        <filter id="logoShadow" x="-20%" y="-20%" width="140%" height="140%">
            <feDropShadow dx="0" dy="6" stdDeviation="5" flood-color="#000000" flood-opacity="0.4"/>
        </filter>
    </defs>
    
    
    <g transform="translate(56.32, 56.32) scale(8.320)" filter="url(#logoShadow)" opacity="0.95">

 <path style="opacity:0.2" d="M 44,25 A 20,20 0 0 1 24,45 20,20 0 0 1 4,25 20,20 0 0 1 24,5 20,20 0 0 1 44,25 Z"/>
 <path style="fill:#f4473a" d="M 44,24 A 20,20 0 0 1 24,44 20,20 0 0 1 4,24 20,20 0 0 1 24,4 20,20 0 0 1 44,24 Z"/>
 <path style="opacity:0.2;fill:#ffffff" d="M 24,4 A 20,20 0 0 0 4,24 20,20 0 0 0 4.0214844,24.582031 20,20 0 0 1 24,5 20,20 0 0 1 43.978516,24.417969 20,20 0 0 0 44,24 20,20 0 0 0 24,4 Z"/>
 <path style="opacity:0.2" d="M 35.013588,26.045764 V 19 l 2.986659,0.5 -3.41642,-3.478921 -5.196141,0.861843 -2.375997,4.752449 L 14,15 l 4,7 -8,-2 c 0,0 10.361073,9.546327 10.627197,9.709953 L 19.968802,30.47688 20.254778,31.48643 14.111986,35 h 7.985407 z"/>
 <path style="fill:#ffffff" d="M 35.013588,25.045764 V 18 l 2.986659,0.5 -3.41642,-3.478921 -5.196141,0.861843 -2.375997,4.752449 L 14,14 l 4,7 -8,-2 c 0,0 10.361073,9.546327 10.627197,9.709953 L 19.968802,29.47688 20.254778,30.48643 14.111986,34 h 7.985407 z"/>

    </g>
</svg>